inDegrees=yes
name=ik_lifting_orientations
DataType=double
version=3
OpenSimVersion=4.5-2024-01-10-34fd6af
endheader
time	pelvis_tilt	pelvis_list	pelvis_rotation	pelvis_tx	pelvis_ty	pelvis_tz	hip_flexion_r	hip_adduction_r	hip_rotation_r	knee_angle_r	knee_angle_r_beta	ankle_angle_r	subtalar_angle_r	mtp_angle_r	hip_flexion_l	hip_adduction_l	hip_rotation_l	knee_angle_l	knee_angle_l_beta	ankle_angle_l	subtalar_angle_l	mtp_angle_l	lumbar_extension	lumbar_bending	lumbar_rotation	arm_flex_r	arm_add_r	arm_rot_r	elbow_flex_r	pro_sup_r	wrist_flex_r	wrist_dev_r	arm_flex_l	arm_add_l	arm_rot_l	elbow_flex_l	pro_sup_l	wrist_flex_l	wrist_dev_l
0.62	-5.5853498650011	-4.18199144374092	-107.5726334171408	0	0.9399999998679526	0	45.456956448879	-10.87188292298119	0	60.00083281048833	1.047212086481664	-5.382624135104964	0	0	45.456956448879	-10.87188292298119	0	60.00083281048833	1.047212086481664	-5.382624135104964	0	0	-9.761429170416081	4.847938682575275	50.01317161082046	-4.999898443166011	-13.52050439959832	-18.42475224440538	18.07488178268662	1.800497674104138	0	0	0	-11.84363004210182	0	88.2349272601178	1.800497674104138	0	0
0.63	-6.115357878054449	-4.545944900132711	-108.121340857131	0	0.9399999998679526	0	45.45678840466228	-10.87076476019448	0	60.00083261044092	1.047212082990178	-5.381984665100734	0	0	45.45678840466228	-10.87076476019448	0	60.00083261044092	1.047212082990178	-5.381984665100734	0	0	-10.26298663108242	4.978123656875652	54.06995726328337	-5.756079321779758	-13.1247278869379	-22.07944996318782	18.16294908547426	1.8000365775329	0	0	0	-11.84422535341412	0	88.23537923368706	1.8000365775329	0	0
0.64	-6.660753698501508	-4.897176543087074	-108.6598517813507	0	0.9399999998679526	0	45.45657002247034	-10.86931679174851	0	60.0008323499371	1.047212078443529	-5.381157357650934	0	0	45.45657002247034	-10.86931679174851	0	60.0008323499371	1.047212078443529	-5.381157357650934	0	0	-10.72329224989244	5.191365065970159	57.68364582841355	-6.530858254362593	-12.55267536798412	-25.56896040004228	18.61194651400749	1.799436828184608	0	0	0	-11.84500023256269	0	88.23596711676704	1.799436828184608	0	0
0.65	-5.81094158054537	-4.396785359197477	-107.0490711390682	0	0.9399999998679526	0	45.45639685452333	-10.86816969651095	0	60.00083214329502	1.047212074836944	-5.380502165352814	0	0	45.45639685452333	-10.86816969651095	0	60.00083214329502	1.047212074836944	-5.380502165352814	0	0	-9.663627429322426	4.730367026942998	57.9087090765936	-6.398232413146037	-12.23910428535975	-27.6356383732617	18.37692597851949	1.798961153939863	0	0	0	-11.84561490946228	0	88.23643337962557	1.798961153939863	0	0
0.66	-5.623109191189658	-4.328302424812102	-106.4092783563064	0	0.9399999998679526	0	45.45619026477055	-10.8667929568051	0	60.00083189813179	1.047212070558039	-5.379715079999344	0	0	45.45619026477055	-10.8667929568051	0	60.00083189813179	1.047212070558039	-5.379715079999344	0	0	-9.459220062157785	4.610286118682131	59.93133371234567	-6.281174594637374	-12.05750945530069	-29.73505744825131	18.06364522008209	1.798394831786223	0	0	0	-11.8463454308513	0	88.23698849680754	1.798394831786223	0	0
0.67	-5.473953148838588	-4.240705964710424	-105.7463147145262	0	0.9399999998679526	0	45.45597944566019	-10.86538916126229	0	60.00083164799527	1.047212066192333	-5.378912866579109	0	0	45.45597944566019	-10.86538916126229	0	60.00083164799527	1.047212066192333	-5.378912866579109	0	0	-9.255429086906863	4.482789944302779	62.06662556394242	-6.297675410211561	-11.61087778865474	-31.69867248198018	17.60380551503504	1.797816897548606	0	0	0	-11.84709092517731	0	88.23755499632563	1.797816897548606	0	0
0.68	-4.808672280570635	-3.776392744612926	-104.6054723358686	0	0.9399999998679526	0	45.45538421724316	-10.86147959281499	0	60.00083093785432	1.047212053798035	-5.376688317314374	0	0	45.45538421724316	-10.86147959281499	0	60.00083093785432	1.047212053798035	-5.376688317314374	0	0	-8.449596690884098	4.190601377877665	59.98004789600103	-5.744943193252923	-11.56295964289931	-29.92742743490454	17.17819790234207	1.796180923764167	0	0	0	-11.84920516024232	0	88.23915860184715	1.796180923764167	0	0
0.6899999999999999	-3.925102336590695	-3.192638202356024	-102.7801516974117	0	0.9399999998679526	0	45.45508770284815	-10.85953081610765	0	60.00083058437193	1.047212047628604	-5.375579450125524	0	0	45.45508770284815	-10.85953081610765	0	60.00083058437193	1.047212047628604	-5.375579450125524	0	0	-7.728189911177267	3.68665725863627	59.62864432577404	-5.598798219639166	-11.53237874115455	-31.01964385017833	16.56432405154301	1.795366116372712	0	0	0	-11.8502580209748	0	88.23995728801124	1.795366116372712	0	0
0.7	-3.833588528814562	-3.118857528753288	-102.9676256982645	0	0.9399999998679526	0	45.45494194603086	-10.85856723353975	0	60.00083041119479	1.047212044606092	-5.375030339729217	0	0	45.45494194603086	-10.85856723353975	0	60.00083041119479	1.047212044606092	-5.375030339729217	0	0	-7.810395765088295	3.534641505289768	61.34212778418964	-5.707174375821495	-11.53881441032868	-32.38440532515472	16.20632545938419	1.794966118379662	0	0	0	-11.85077435572963	0	88.24034937187996	1.794966118379662	0	0
0.71	-3.982100031455081	-3.21433713788181	-103.4426522997345	0	0.9399999998679526	0	45.45470447431519	-10.85699869980035	0	60.00083012907408	1.047212039682157	-5.374136867494766	0	0	45.45470447431519	-10.85699869980035	0	60.00083012907408	1.047212039682157	-5.374136867494766	0	0	-7.517444054861185	3.424205488151733	65.81083794354495	-6.639958907070937	-10.55709548958694	-36.32942748936007	16.34835064815985	1.794314387828113	0	0	0	-11.85161565485224	0	88.24098820768013	1.794314387828113	0	0
0.72	-3.814318833357562	-3.084413536561179	-103.1284806399249	0	0.9399999998679526	0	45.44888854410332	-10.8311168459413	0	60.00082136463348	1.047211886713811	-5.360710993947865	0	0	45.44888854410332	-10.8311168459413	0	60.00082136463348	1.047211886713811	-5.360710993947865	0	0	-7.485128897995382	3.422260107435326	63.45261514793108	-6.453965322241897	-10.58080875526682	-34.18563569129067	16.77750868009846	1.776695955870749	0	0	0	-11.87619477597749	0	88.25825817429268	1.776695955870749	0	0
0.73	-3.380497797090325	-2.778773449116238	-102.2724968109834	0	0.9399999998679526	0	45.44876153131474	-10.8302991056996	0	60.00082121284107	1.047211884064534	-5.360248663981054	0	0	45.44876153131474	-10.8302991056996	0	60.00082121284107	1.047211884064534	-5.360248663981054	0	0	-7.615789911274804	3.241221689333873	62.51027908754494	-6.384570249147211	-10.88326617334091	-34.08600167796577	17.03403499468593	1.77634551479366	0	0	0	-11.87664896019644	0	88.25860168193056	1.77634551479366	0	0
0.74	-3.266342965391626	-2.693219817610258	-102.3680121167855	0	0.9399999998679526	0	45.44859648445072	-10.82923148237249	0	60.00082101653717	1.047211880638385	-5.359644702644781	0	0	45.44859648445072	-10.82923148237249	0	60.00082101653717	1.047211880638385	-5.359644702644781	0	0	-7.064597476486469	2.958742330516658	65.6791231452796	-7.095769945304784	-9.850489740186537	-37.00453096176951	17.23768906736762	1.77589092827855	0	0	0	-11.87723721306386	0	88.25904727444332	1.77589092827855	0	0
0.75	-3.280933487789599	-2.697106241100924	-102.6738890548719	0	0.9399999998679526	0	45.44844657714727	-10.82827423007594	0	60.0008208365099	1.047211877496316	-5.359104639058041	0	0	45.44844657714727	-10.82827423007594	0	60.0008208365099	1.047211877496316	-5.359104639058041	0	0	-6.688438297144059	2.884627388621107	66.65319012422955	-7.530299780956861	-9.248957146425333	-37.83050057575449	17.83450056090859	1.775476466063357	0	0	0	-11.87777526599807	0	88.25945353663026	1.775476466063357	0	0
